<?plantuml 1.2026.1beta2?><svg xmlns="http://www.w3.org/2000/svg" xmlns:xlink="http://www.w3.org/1999/xlink" contentStyleType="text/css" data-diagram-type="DESCRIPTION" height="719px" preserveAspectRatio="none" style="width:593px;height:719px;background:#FFFFFF;" version="1.1" viewBox="0 0 593 719" width="593px" zoomAndPan="magnify"><defs/><g><!--entity Client--><g class="entity" data-qualified-name="Client" data-source-line="4" id="ent0002"><ellipse cx="194.5051" cy="19" fill="#FFFFFF" rx="8" ry="8" style="stroke:#000000;stroke-width:1;"/><path d="M194.5051,27 L194.5051,54 M181.5051,35 L207.5051,35 M194.5051,54 L181.5051,69 M194.5051,54 L207.5051,69" fill="none" style="stroke:#000000;stroke-width:1;"/><text fill="#000000" font-family="Verdana" font-size="14" lengthAdjust="spacing" textLength="40.5303" x="174.24" y="83.9951">Client</text></g><!--entity Gateway--><g class="entity" data-qualified-name="Gateway" data-source-line="5" id="ent0003"><rect fill="#ADD8E6" height="62.5938" rx="2.5" ry="2.5" style="stroke:#000000;stroke-width:1;" width="128.4434" x="130.28" y="148.29"/><rect fill="#ADD8E6" height="10" style="stroke:#000000;stroke-width:1;" width="15" x="238.7234" y="153.29"/><rect fill="#ADD8E6" height="2" style="stroke:#000000;stroke-width:1;" width="4" x="236.7234" y="155.29"/><rect fill="#ADD8E6" height="2" style="stroke:#000000;stroke-width:1;" width="4" x="236.7234" y="159.29"/><text fill="#000000" font-family="Verdana" font-size="14" lengthAdjust="spacing" textLength="88.4434" x="145.28" y="181.2851">API Gateway</text><text fill="#000000" font-family="Verdana" font-size="14" lengthAdjust="spacing" textLength="40.3457" x="145.28" y="197.582">:4000</text></g><!--entity Auth--><g class="entity" data-qualified-name="Auth" data-source-line="6" id="ent0004"><rect fill="#FFFFE0" height="62.5938" rx="2.5" ry="2.5" style="stroke:#000000;stroke-width:1;" width="129.0039" x="12" y="271.89"/><rect fill="#FFFFE0" height="10" style="stroke:#000000;stroke-width:1;" width="15" x="121.0039" y="276.89"/><rect fill="#FFFFE0" height="2" style="stroke:#000000;stroke-width:1;" width="4" x="119.0039" y="278.89"/><rect fill="#FFFFE0" height="2" style="stroke:#000000;stroke-width:1;" width="4" x="119.0039" y="282.89"/><text fill="#000000" font-family="Verdana" font-size="14" lengthAdjust="spacing" textLength="89.0039" x="27" y="304.8851">Auth Service</text><text fill="#000000" font-family="Verdana" font-size="14" lengthAdjust="spacing" textLength="40.3457" x="27" y="321.182">:8080</text></g><!--entity Product--><g class="entity" data-qualified-name="Product" data-source-line="7" id="ent0005"><rect fill="#FFFFE0" height="62.5938" rx="2.5" ry="2.5" style="stroke:#000000;stroke-width:1;" width="149.9014" x="207.55" y="533.78"/><rect fill="#FFFFE0" height="10" style="stroke:#000000;stroke-width:1;" width="15" x="337.4514" y="538.78"/><rect fill="#FFFFE0" height="2" style="stroke:#000000;stroke-width:1;" width="4" x="335.4514" y="540.78"/><rect fill="#FFFFE0" height="2" style="stroke:#000000;stroke-width:1;" width="4" x="335.4514" y="544.78"/><text fill="#000000" font-family="Verdana" font-size="14" lengthAdjust="spacing" textLength="109.9014" x="222.55" y="566.7751">Product Service</text><text fill="#000000" font-family="Verdana" font-size="14" lengthAdjust="spacing" textLength="40.3457" x="222.55" y="583.072">:8081</text></g><!--entity Order--><g class="entity" data-qualified-name="Order" data-source-line="8" id="ent0006"><rect fill="#FFFFE0" height="62.5938" rx="2.5" ry="2.5" style="stroke:#000000;stroke-width:1;" width="136.2227" x="325.39" y="271.89"/><rect fill="#FFFFE0" height="10" style="stroke:#000000;stroke-width:1;" width="15" x="441.6127" y="276.89"/><rect fill="#FFFFE0" height="2" style="stroke:#000000;stroke-width:1;" width="4" x="439.6127" y="278.89"/><rect fill="#FFFFE0" height="2" style="stroke:#000000;stroke-width:1;" width="4" x="439.6127" y="282.89"/><text fill="#000000" font-family="Verdana" font-size="14" lengthAdjust="spacing" textLength="96.2227" x="340.39" y="304.8851">Order Service</text><text fill="#000000" font-family="Verdana" font-size="14" lengthAdjust="spacing" textLength="40.3457" x="340.39" y="321.182">:8082</text></g><!--entity UDB--><g class="entity" data-qualified-name="UDB" data-source-line="9" id="ent0007"><path d="M34.48,421.48 C34.48,411.48 76.4995,411.48 76.4995,411.48 C76.4995,411.48 118.5191,411.48 118.5191,421.48 L118.5191,446.7769 C118.5191,456.7769 76.4995,456.7769 76.4995,456.7769 C76.4995,456.7769 34.48,456.7769 34.48,446.7769 L34.48,421.48" fill="#FFFFFF" style="stroke:#000000;stroke-width:1;"/><path d="M34.48,421.48 C34.48,431.48 76.4995,431.48 76.4995,431.48 C76.4995,431.48 118.5191,431.48 118.5191,421.48" fill="none" style="stroke:#000000;stroke-width:1;"/><text fill="#000000" font-family="Verdana" font-size="14" lengthAdjust="spacing" textLength="64.0391" x="44.48" y="448.4751">Users DB</text></g><!--entity PDB--><g class="entity" data-qualified-name="PDB" data-source-line="10" id="ent0008"><path d="M229.58,667.37 C229.58,657.37 282.4994,657.37 282.4994,657.37 C282.4994,657.37 335.4189,657.37 335.4189,667.37 L335.4189,692.6669 C335.4189,702.6669 282.4994,702.6669 282.4994,702.6669 C282.4994,702.6669 229.58,702.6669 229.58,692.6669 L229.58,667.37" fill="#FFFFFF" style="stroke:#000000;stroke-width:1;"/><path d="M229.58,667.37 C229.58,677.37 282.4994,677.37 282.4994,677.37 C282.4994,677.37 335.4189,677.37 335.4189,667.37" fill="none" style="stroke:#000000;stroke-width:1;"/><text fill="#000000" font-family="Verdana" font-size="14" lengthAdjust="spacing" textLength="85.8389" x="239.58" y="694.3651">Products DB</text></g><!--entity ODB--><g class="entity" data-qualified-name="ODB" data-source-line="11" id="ent0009"><path d="M399.42,421.48 C399.42,411.48 445.5001,411.48 445.5001,411.48 C445.5001,411.48 491.5802,411.48 491.5802,421.48 L491.5802,446.7769 C491.5802,456.7769 445.5001,456.7769 445.5001,456.7769 C445.5001,456.7769 399.42,456.7769 399.42,446.7769 L399.42,421.48" fill="#FFFFFF" style="stroke:#000000;stroke-width:1;"/><path d="M399.42,421.48 C399.42,431.48 445.5001,431.48 445.5001,431.48 C445.5001,431.48 491.5802,431.48 491.5802,421.48" fill="none" style="stroke:#000000;stroke-width:1;"/><text fill="#000000" font-family="Verdana" font-size="14" lengthAdjust="spacing" textLength="72.1602" x="409.42" y="448.4751">Orders DB</text></g><!--entity Kafka--><g class="entity" data-qualified-name="Kafka" data-source-line="12" id="ent0010"><path d="M531.81,420.98 L581.185,420.98 C586.185,420.98 586.185,434.1284 586.185,434.1284 C586.185,434.1284 586.185,447.2769 581.185,447.2769 L531.81,447.2769 C526.81,447.2769 526.81,434.1284 526.81,434.1284 C526.81,434.1284 526.81,420.98 531.81,420.98" fill="#90EE90" style="stroke:#000000;stroke-width:1;"/><path d="M581.185,420.98 C576.185,420.98 576.185,434.1284 576.185,434.1284 C576.185,447.2769 581.185,447.2769 581.185,447.2769" fill="none" style="stroke:#000000;stroke-width:1;"/><text fill="#000000" font-family="Verdana" font-size="14" lengthAdjust="spacing" textLength="39.375" x="531.81" y="438.9751">Kafka</text></g><!--link Client to Gateway--><g class="link" data-entity-1="ent0002" data-entity-2="ent0003" data-link-type="dependency" data-source-line="14" id="lnk11"><path d="M194.5,87.64 C194.5,106.8 194.5,123.75 194.5,141.8" fill="none" id="Client-to-Gateway" style="stroke:#000000;stroke-width:1;"/><polygon fill="#000000" points="194.5,147.8,198.5,138.8,194.5,142.8,190.5,138.8,194.5,147.8" style="stroke:#000000;stroke-width:1;"/></g><!--link Gateway to Auth--><g class="link" data-entity-1="ent0003" data-entity-2="ent0004" data-link-type="dependency" data-source-line="15" id="lnk12"><path d="M164.73,211.28 C146.84,229.71 128.3391,248.7748 110.4491,267.2048" fill="none" id="Gateway-to-Auth" style="stroke:#000000;stroke-width:1;"/><polygon fill="#000000" points="106.27,271.51,115.4088,267.8382,109.7526,267.9223,109.6685,262.2661,106.27,271.51" style="stroke:#000000;stroke-width:1;"/></g><!--link Gateway to Product--><g class="link" data-entity-1="ent0003" data-entity-2="ent0005" data-link-type="dependency" data-source-line="16" id="lnk13"><path d="M201.55,211.33 C218.05,283.22 257.668,455.842 274.138,527.612" fill="none" id="Gateway-to-Product" style="stroke:#000000;stroke-width:1;"/><polygon fill="#000000" points="275.48,533.46,277.3656,523.7933,274.3617,528.5867,269.5683,525.5827,275.48,533.46" style="stroke:#000000;stroke-width:1;"/></g><!--link Gateway to Order--><g class="link" data-entity-1="ent0003" data-entity-2="ent0006" data-link-type="dependency" data-source-line="17" id="lnk14"><path d="M244.72,211.28 C274.88,229.71 308.0202,249.9514 338.1802,268.3814" fill="none" id="Gateway-to-Order" style="stroke:#000000;stroke-width:1;"/><polygon fill="#000000" points="343.3,271.51,337.706,263.404,339.0335,268.9029,333.5346,270.2303,343.3,271.51" style="stroke:#000000;stroke-width:1;"/></g><!--link Auth to UDB--><g class="link" data-entity-1="ent0004" data-entity-2="ent0007" data-link-type="dependency" data-source-line="19" id="lnk15"><path d="M76.5,334.74 C76.5,358.28 76.5,384.24 76.5,405.26" fill="none" id="Auth-to-UDB" style="stroke:#000000;stroke-width:1;"/><polygon fill="#000000" points="76.5,411.26,80.5,402.26,76.5,406.26,72.5,402.26,76.5,411.26" style="stroke:#000000;stroke-width:1;"/></g><!--link Product to PDB--><g class="link" data-entity-1="ent0005" data-entity-2="ent0008" data-link-type="dependency" data-source-line="20" id="lnk16"><path d="M282.5,596.64 C282.5,615.72 282.5,633.83 282.5,651.03" fill="none" id="Product-to-PDB" style="stroke:#000000;stroke-width:1;"/><polygon fill="#000000" points="282.5,657.03,286.5,648.03,282.5,652.03,278.5,648.03,282.5,657.03" style="stroke:#000000;stroke-width:1;"/></g><!--link Order to ODB--><g class="link" data-entity-1="ent0006" data-entity-2="ent0009" data-link-type="dependency" data-source-line="21" id="lnk17"><path d="M405.83,334.74 C415.32,358.28 425.9675,384.6748 434.4375,405.6948" fill="none" id="Order-to-ODB" style="stroke:#000000;stroke-width:1;"/><polygon fill="#000000" points="436.68,411.26,437.0264,401.4172,434.8113,406.6223,429.6061,404.4072,436.68,411.26" style="stroke:#000000;stroke-width:1;"/></g><!--link Order to Product--><g class="link" data-entity-1="ent0006" data-entity-2="ent0005" data-link-type="dependency" data-source-line="23" id="lnk18"><path d="M357.51,334.72 C336.9,354.4 312.59,381.8 299.5,411.48 C282.08,451 279.7587,495.6117 280.5087,527.4517" fill="none" id="Order-to-Product" style="stroke:#000000;stroke-width:1;"/><polygon fill="#000000" points="280.65,533.45,284.437,524.3583,280.5323,528.4514,276.4392,524.5467,280.65,533.45" style="stroke:#000000;stroke-width:1;"/><text fill="#000000" font-family="Verdana" font-size="13" lengthAdjust="spacing" textLength="80.1011" x="300.5" y="438.6969">Check Stock</text></g><!--link Order to Kafka--><g class="link" data-entity-1="ent0006" data-entity-2="ent0010" data-link-type="dependency" data-source-line="24" id="lnk19"><path d="M432.13,334.74 C466.78,362.15 511.164,397.268 536.034,416.938" fill="none" id="Order-to-Kafka" style="stroke:#000000;stroke-width:1;stroke-dasharray:7,7;"/><polygon fill="#000000" points="540.74,420.66,536.1624,411.9396,536.8183,417.5583,531.1996,418.2143,540.74,420.66" style="stroke:#000000;stroke-width:1;"/><text fill="#000000" font-family="Verdana" font-size="13" lengthAdjust="spacing" textLength="88.9053" x="490.5" y="377.5469">OrderCreated</text></g><!--link Kafka to Product--><g class="link" data-entity-1="ent0010" data-entity-2="ent0005" data-link-type="dependency" data-source-line="25" id="lnk20"><path d="M529.73,447.73 C487.92,467.41 411.3291,503.4557 353.2391,530.7857" fill="none" id="Kafka-to-Product" style="stroke:#000000;stroke-width:1;stroke-dasharray:7,7;"/><polygon fill="#000000" points="347.81,533.34,357.6566,533.128,352.3343,531.2114,354.2509,525.8891,347.81,533.34" style="stroke:#000000;stroke-width:1;"/><text fill="#000000" font-family="Verdana" font-size="13" lengthAdjust="spacing" textLength="83.0591" x="444.5" y="499.8469">UpdateStock</text></g><?plantuml-src TP0nRuCm48Lt_uehdHFHgaEK8L93fAhg4AGeMvUBkGB2sDIOelpxcZEayT3jxhtxVEVtu2fg2Jg5jHPzK-iEBRPmGTcKrWowo8mo5iQgTYG4IkUR95CrQPS0zX1A8KtR6UqhI5xpTtX3HoDUF_Ns9KrJ7fmbU5HrMRcB6YY21bV1YUnFBSbJctGJADO3SYMbp7WFvTOKWtGnzyJSOls77cr1DWQV6Gn6X1Ney88zGNBkoVPmsFFa-R2_i-Q5DpUFN7xrvXszzptGu8qF_6gGHQxcnQKbqaA4R66rsYtfYIN5IPkoYOJvXaZZpK9mZbC_NRs4muplmvzvsdTtxJAuXQmYsS396TdC_dgzcs_UXYMP9R-t446Sx3_ytFaiYF5V?></g></svg>