<?plantuml 1.2026.1beta2?><svg xmlns="http://www.w3.org/2000/svg" xmlns:xlink="http://www.w3.org/1999/xlink" contentStyleType="text/css" data-diagram-type="SEQUENCE" height="342px" preserveAspectRatio="none" style="width:375px;height:342px;background:#FFFFFF;" version="1.1" viewBox="0 0 375 342" width="375px" zoomAndPan="magnify"><defs/><g><g class="participant-lifeline" data-entity-uid="part1" data-qualified-name="Client" id="part1-lifeline"><g><title>Client</title><rect fill="#000000" fill-opacity="0.00000" height="178.6641" width="8" x="29.2651" y="82.2969"/><line style="stroke:#000000;stroke-width:1;stroke-dasharray:5,5;" x1="33" x2="33" y1="82.2969" y2="260.9609"/></g></g><g class="participant-lifeline" data-entity-uid="part2" data-qualified-name="Auth" id="part2-lifeline"><g><title>Auth Service</title><rect fill="#000000" fill-opacity="0.00000" height="178.6641" width="8" x="159.7852" y="82.2969"/><line style="stroke:#000000;stroke-width:1;stroke-dasharray:5,5;" x1="163.2832" x2="163.2832" y1="82.2969" y2="260.9609"/></g></g><g class="participant-lifeline" data-entity-uid="part3" data-qualified-name="DB" id="part3-lifeline"><g><title>Users DB</title><rect fill="#000000" fill-opacity="0.00000" height="178.6641" width="8" x="335.8154" y="82.2969"/><line style="stroke:#000000;stroke-width:1;stroke-dasharray:5,5;" x1="339.7959" x2="339.7959" y1="82.2969" y2="260.9609"/></g></g><g class="participant participant-head" data-entity-uid="part1" data-qualified-name="Client" id="part1-head"><text fill="#000000" font-family="Verdana" font-size="14" lengthAdjust="spacing" textLength="40.5303" x="10" y="78.9951">Client</text><ellipse cx="33.2651" cy="14" fill="#FFFFFF" rx="8" ry="8" style="stroke:#000000;stroke-width:1;"/><path d="M33.2651,22 L33.2651,49 M20.2651,30 L46.2651,30 M33.2651,49 L20.2651,64 M33.2651,49 L46.2651,64" fill="none" style="stroke:#000000;stroke-width:1;"/></g><g class="participant participant-tail" data-entity-uid="part1" data-qualified-name="Client" id="part1-tail"><text fill="#000000" font-family="Verdana" font-size="14" lengthAdjust="spacing" textLength="40.5303" x="10" y="272.9561">Client</text><ellipse cx="33.2651" cy="285.2578" fill="#FFFFFF" rx="8" ry="8" style="stroke:#000000;stroke-width:1;"/><path d="M33.2651,293.2578 L33.2651,320.2578 M20.2651,301.2578 L46.2651,301.2578 M33.2651,320.2578 L20.2651,335.2578 M33.2651,320.2578 L46.2651,335.2578" fill="none" style="stroke:#000000;stroke-width:1;"/></g><g class="participant participant-head" data-entity-uid="part2" data-qualified-name="Auth" id="part2-head"><rect fill="#FFFFFF" height="30.2969" rx="2.5" ry="2.5" style="stroke:#000000;stroke-width:1;" width="103.0039" x="112.2832" y="51"/><text fill="#000000" font-family="Verdana" font-size="14" lengthAdjust="spacing" textLength="89.0039" x="119.2832" y="70.9951">Auth Service</text></g><g class="participant participant-tail" data-entity-uid="part2" data-qualified-name="Auth" id="part2-tail"><rect fill="#FFFFFF" height="30.2969" rx="2.5" ry="2.5" style="stroke:#000000;stroke-width:1;" width="103.0039" x="112.2832" y="259.9609"/><text fill="#000000" font-family="Verdana" font-size="14" lengthAdjust="spacing" textLength="89.0039" x="119.2832" y="279.9561">Auth Service</text></g><g class="participant participant-head" data-entity-uid="part3" data-qualified-name="DB" id="part3-head"><text fill="#000000" font-family="Verdana" font-size="14" lengthAdjust="spacing" textLength="64.0391" x="304.7959" y="78.9951">Users DB</text><path d="M321.8154,30 C321.8154,20 339.8154,20 339.8154,20 C339.8154,20 357.8154,20 357.8154,30 L357.8154,56 C357.8154,66 339.8154,66 339.8154,66 C339.8154,66 321.8154,66 321.8154,56 L321.8154,30" fill="#FFFFFF" style="stroke:#000000;stroke-width:1;"/><path d="M321.8154,30 C321.8154,40 339.8154,40 339.8154,40 C339.8154,40 357.8154,40 357.8154,30" fill="none" style="stroke:#000000;stroke-width:1;"/></g><g class="participant participant-tail" data-entity-uid="part3" data-qualified-name="DB" id="part3-tail"><text fill="#000000" font-family="Verdana" font-size="14" lengthAdjust="spacing" textLength="64.0391" x="304.7959" y="272.9561">Users DB</text><path d="M321.8154,286.2578 C321.8154,276.2578 339.8154,276.2578 339.8154,276.2578 C339.8154,276.2578 357.8154,276.2578 357.8154,286.2578 L357.8154,312.2578 C357.8154,322.2578 339.8154,322.2578 339.8154,322.2578 C339.8154,322.2578 321.8154,322.2578 321.8154,312.2578 L321.8154,286.2578" fill="#FFFFFF" style="stroke:#000000;stroke-width:1;"/><path d="M321.8154,286.2578 C321.8154,296.2578 339.8154,296.2578 339.8154,296.2578 C339.8154,296.2578 357.8154,296.2578 357.8154,286.2578" fill="none" style="stroke:#000000;stroke-width:1;"/></g><g class="message" data-entity-1="part1" data-entity-2="part2" id="msg1"><polygon fill="#000000" points="151.7852,109.4297,161.7852,113.4297,151.7852,117.4297,155.7852,113.4297" style="stroke:#000000;stroke-width:1;"/><line style="stroke:#000000;stroke-width:1;" x1="33.2651" x2="157.7852" y1="113.4297" y2="113.4297"/><text fill="#000000" font-family="Verdana" font-size="13" lengthAdjust="spacing" textLength="74.4453" x="40.2651" y="108.3638">POST /login</text></g><g class="message" data-entity-1="part2" data-entity-2="part3" id="msg2"><polygon fill="#000000" points="327.8154,138.5625,337.8154,142.5625,327.8154,146.5625,331.8154,142.5625" style="stroke:#000000;stroke-width:1;"/><line style="stroke:#000000;stroke-width:1;" x1="163.7852" x2="333.8154" y1="142.5625" y2="142.5625"/><text fill="#000000" font-family="Verdana" font-size="13" lengthAdjust="spacing" textLength="117.9331" x="170.7852" y="137.4966">findByUsername()</text></g><g class="message" data-entity-1="part3" data-entity-2="part2" id="msg3"><polygon fill="#000000" points="174.7852,167.6953,164.7852,171.6953,174.7852,175.6953,170.7852,171.6953" style="stroke:#000000;stroke-width:1;"/><line style="stroke:#000000;stroke-width:1;stroke-dasharray:2,2;" x1="168.7852" x2="338.8154" y1="171.6953" y2="171.6953"/><text fill="#000000" font-family="Verdana" font-size="13" lengthAdjust="spacing" textLength="71.7158" x="180.7852" y="166.6294">User Entity</text></g><g class="message" data-entity-1="part2" data-entity-2="part2" id="msg4"><line style="stroke:#000000;stroke-width:1;" x1="163.7852" x2="205.7852" y1="200.8281" y2="200.8281"/><line style="stroke:#000000;stroke-width:1;" x1="205.7852" x2="205.7852" y1="200.8281" y2="213.8281"/><line style="stroke:#000000;stroke-width:1;" x1="164.7852" x2="205.7852" y1="213.8281" y2="213.8281"/><polygon fill="#000000" points="174.7852,209.8281,164.7852,213.8281,174.7852,217.8281,170.7852,213.8281" style="stroke:#000000;stroke-width:1;"/><text fill="#000000" font-family="Verdana" font-size="13" lengthAdjust="spacing" textLength="162.0303" x="170.7852" y="195.7622">Validate + Generate JWT</text></g><g class="message" data-entity-1="part2" data-entity-2="part1" id="msg5"><polygon fill="#000000" points="44.2651,238.9609,34.2651,242.9609,44.2651,246.9609,40.2651,242.9609" style="stroke:#000000;stroke-width:1;"/><line style="stroke:#000000;stroke-width:1;stroke-dasharray:2,2;" x1="38.2651" x2="162.7852" y1="242.9609" y2="242.9609"/><text fill="#000000" font-family="Verdana" font-size="13" lengthAdjust="spacing" textLength="106.52" x="50.2651" y="237.895">200 OK + Token</text></g><?plantuml-src HOx1JiD034Jl-nL3JY1KKN7i0Oaq20aEHMg0ivkuZPMDDzfrGVrxDY62cptlsPehwtXWZ9v4NUf5Huequ41DVuhXhEqs-13ntOcnSzHONhPUMCrbqwIHaTHGF9wjmvxZbpHSW1AcmBLaTA34ADuJnuIgd5bLElVx1Ak7sSG6RxjzZJiVJhd876LKbHaSHTloCZrG6lZwnkLqzNyt0JofYLt-xXRqGLvo1SOjdbavJkFBPxresLjAR72_NcFtchqwzAm_?></g></svg>