<?plantuml 1.2026.1beta2?><svg xmlns="http://www.w3.org/2000/svg" xmlns:xlink="http://www.w3.org/1999/xlink" contentStyleType="text/css" data-diagram-type="SEQUENCE" height="433px" preserveAspectRatio="none" style="width:567px;height:433px;background:#FFFFFF;" version="1.1" viewBox="0 0 567 433" width="567px" zoomAndPan="magnify"><defs/><g><rect fill="#FFFFFF" height="148.4688" style="stroke:#000000;stroke-width:1;" width="545.3369" x="15" y="186.6953"/><rect fill="#FFFFFF" height="43.9375" style="stroke:none;stroke-width:1;" width="545.3369" x="15" y="291.2266"/><g class="participant-lifeline" data-entity-uid="part1" data-qualified-name="User" id="part1-lifeline"><g><title>User</title><rect fill="#000000" fill-opacity="0.00000" height="269.8672" width="8" x="39.9551" y="82.2969"/><line style="stroke:#000000;stroke-width:1;stroke-dasharray:5,5;" x1="43" x2="43" y1="82.2969" y2="352.1641"/></g></g><g class="participant-lifeline" data-entity-uid="part2" data-qualified-name="Order" id="part2-lifeline"><g><title>Order Service</title><rect fill="#000000" fill-opacity="0.00000" height="269.8672" width="8" x="175.5596" y="82.2969"/><line style="stroke:#000000;stroke-width:1;stroke-dasharray:5,5;" x1="179.4482" x2="179.4482" y1="82.2969" y2="352.1641"/></g></g><g class="participant-lifeline" data-entity-uid="part3" data-qualified-name="Product" id="part3-lifeline"><g><title>Product Service</title><rect fill="#000000" fill-opacity="0.00000" height="269.8672" width="8" x="324.145" y="82.2969"/><line style="stroke:#000000;stroke-width:1;stroke-dasharray:5,5;" x1="327.1943" x2="327.1943" y1="82.2969" y2="352.1641"/></g></g><g class="participant-lifeline" data-entity-uid="part4" data-qualified-name="DB" id="part4-lifeline"><g><title>Order DB</title><rect fill="#000000" fill-opacity="0.00000" height="269.8672" width="8" x="441.5288" y="82.2969"/><line style="stroke:#000000;stroke-width:1;stroke-dasharray:5,5;" x1="445.0957" x2="445.0957" y1="82.2969" y2="352.1641"/></g></g><g class="participant-lifeline" data-entity-uid="part5" data-qualified-name="Kafka" id="part5-lifeline"><g><title>Kafka</title><rect fill="#000000" fill-opacity="0.00000" height="269.8672" width="8" x="516.6494" y="82.2969"/><line style="stroke:#000000;stroke-width:1;stroke-dasharray:5,5;" x1="519.9619" x2="519.9619" y1="82.2969" y2="352.1641"/></g></g><g class="participant participant-head" data-entity-uid="part1" data-qualified-name="User" id="part1-head"><text fill="#000000" font-family="Verdana" font-size="14" lengthAdjust="spacing" textLength="31.9102" x="25" y="78.9951">User</text><ellipse cx="43.9551" cy="14" fill="#FFFFFF" rx="8" ry="8" style="stroke:#000000;stroke-width:1;"/><path d="M43.9551,22 L43.9551,49 M30.9551,30 L56.9551,30 M43.9551,49 L30.9551,64 M43.9551,49 L56.9551,64" fill="none" style="stroke:#000000;stroke-width:1;"/></g><g class="participant participant-tail" data-entity-uid="part1" data-qualified-name="User" id="part1-tail"><text fill="#000000" font-family="Verdana" font-size="14" lengthAdjust="spacing" textLength="31.9102" x="25" y="364.1592">User</text><ellipse cx="43.9551" cy="376.4609" fill="#FFFFFF" rx="8" ry="8" style="stroke:#000000;stroke-width:1;"/><path d="M43.9551,384.4609 L43.9551,411.4609 M30.9551,392.4609 L56.9551,392.4609 M43.9551,411.4609 L30.9551,426.4609 M43.9551,411.4609 L56.9551,426.4609" fill="none" style="stroke:#000000;stroke-width:1;"/></g><g class="participant participant-head" data-entity-uid="part2" data-qualified-name="Order" id="part2-head"><rect fill="#FFFFFF" height="30.2969" rx="2.5" ry="2.5" style="stroke:#000000;stroke-width:1;" width="110.2227" x="124.4482" y="51"/><text fill="#000000" font-family="Verdana" font-size="14" lengthAdjust="spacing" textLength="96.2227" x="131.4482" y="70.9951">Order Service</text></g><g class="participant participant-tail" data-entity-uid="part2" data-qualified-name="Order" id="part2-tail"><rect fill="#FFFFFF" height="30.2969" rx="2.5" ry="2.5" style="stroke:#000000;stroke-width:1;" width="110.2227" x="124.4482" y="351.1641"/><text fill="#000000" font-family="Verdana" font-size="14" lengthAdjust="spacing" textLength="96.2227" x="131.4482" y="371.1592">Order Service</text></g><g class="participant participant-head" data-entity-uid="part3" data-qualified-name="Product" id="part3-head"><rect fill="#FFFFFF" height="30.2969" rx="2.5" ry="2.5" style="stroke:#000000;stroke-width:1;" width="123.9014" x="266.1943" y="51"/><text fill="#000000" font-family="Verdana" font-size="14" lengthAdjust="spacing" textLength="109.9014" x="273.1943" y="70.9951">Product Service</text></g><g class="participant participant-tail" data-entity-uid="part3" data-qualified-name="Product" id="part3-tail"><rect fill="#FFFFFF" height="30.2969" rx="2.5" ry="2.5" style="stroke:#000000;stroke-width:1;" width="123.9014" x="266.1943" y="351.1641"/><text fill="#000000" font-family="Verdana" font-size="14" lengthAdjust="spacing" textLength="109.9014" x="273.1943" y="371.1592">Product Service</text></g><g class="participant participant-head" data-entity-uid="part4" data-qualified-name="DB" id="part4-head"><text fill="#000000" font-family="Verdana" font-size="14" lengthAdjust="spacing" textLength="64.8662" x="410.0957" y="78.9951">Order DB</text><path d="M427.5288,30 C427.5288,20 445.5288,20 445.5288,20 C445.5288,20 463.5288,20 463.5288,30 L463.5288,56 C463.5288,66 445.5288,66 445.5288,66 C445.5288,66 427.5288,66 427.5288,56 L427.5288,30" fill="#FFFFFF" style="stroke:#000000;stroke-width:1;"/><path d="M427.5288,30 C427.5288,40 445.5288,40 445.5288,40 C445.5288,40 463.5288,40 463.5288,30" fill="none" style="stroke:#000000;stroke-width:1;"/></g><g class="participant participant-tail" data-entity-uid="part4" data-qualified-name="DB" id="part4-tail"><text fill="#000000" font-family="Verdana" font-size="14" lengthAdjust="spacing" textLength="64.8662" x="410.0957" y="364.1592">Order DB</text><path d="M427.5288,377.4609 C427.5288,367.4609 445.5288,367.4609 445.5288,367.4609 C445.5288,367.4609 463.5288,367.4609 463.5288,377.4609 L463.5288,403.4609 C463.5288,413.4609 445.5288,413.4609 445.5288,413.4609 C445.5288,413.4609 427.5288,413.4609 427.5288,403.4609 L427.5288,377.4609" fill="#FFFFFF" style="stroke:#000000;stroke-width:1;"/><path d="M427.5288,377.4609 C427.5288,387.4609 445.5288,387.4609 445.5288,387.4609 C445.5288,387.4609 463.5288,387.4609 463.5288,377.4609" fill="none" style="stroke:#000000;stroke-width:1;"/></g><g class="participant participant-head" data-entity-uid="part5" data-qualified-name="Kafka" id="part5-head"><path d="M495.9619,56 L545.3369,56 C550.3369,56 550.3369,69.1484 550.3369,69.1484 C550.3369,69.1484 550.3369,82.2969 545.3369,82.2969 L495.9619,82.2969 C490.9619,82.2969 490.9619,69.1484 490.9619,69.1484 C490.9619,69.1484 490.9619,56 495.9619,56" fill="#FFFFFF" style="stroke:#000000;stroke-width:1;"/><path d="M545.3369,56 C540.3369,56 540.3369,69.1484 540.3369,69.1484 C540.3369,82.2969 545.3369,82.2969 545.3369,82.2969" fill="none" style="stroke:#000000;stroke-width:1;"/><text fill="#000000" font-family="Verdana" font-size="14" lengthAdjust="spacing" textLength="39.375" x="495.9619" y="73.9951">Kafka</text></g><g class="participant participant-tail" data-entity-uid="part5" data-qualified-name="Kafka" id="part5-tail"><path d="M495.9619,351.1641 L545.3369,351.1641 C550.3369,351.1641 550.3369,364.3125 550.3369,364.3125 C550.3369,364.3125 550.3369,377.4609 545.3369,377.4609 L495.9619,377.4609 C490.9619,377.4609 490.9619,364.3125 490.9619,364.3125 C490.9619,364.3125 490.9619,351.1641 495.9619,351.1641" fill="#FFFFFF" style="stroke:#000000;stroke-width:1;"/><path d="M545.3369,351.1641 C540.3369,351.1641 540.3369,364.3125 540.3369,364.3125 C540.3369,377.4609 545.3369,377.4609 545.3369,377.4609" fill="none" style="stroke:#000000;stroke-width:1;"/><text fill="#000000" font-family="Verdana" font-size="14" lengthAdjust="spacing" textLength="39.375" x="495.9619" y="369.1592">Kafka</text></g><g class="message" data-entity-1="part1" data-entity-2="part2" id="msg1"><polygon fill="#000000" points="167.5596,109.4297,177.5596,113.4297,167.5596,117.4297,171.5596,113.4297" style="stroke:#000000;stroke-width:1;"/><line style="stroke:#000000;stroke-width:1;" x1="43.9551" x2="173.5596" y1="113.4297" y2="113.4297"/><text fill="#000000" font-family="Verdana" font-size="13" lengthAdjust="spacing" textLength="84.4429" x="50.9551" y="108.3638">POST /orders</text></g><g class="message" data-entity-1="part2" data-entity-2="part3" id="msg2"><polygon fill="#000000" points="316.145,138.5625,326.145,142.5625,316.145,146.5625,320.145,142.5625" style="stroke:#000000;stroke-width:1;"/><line style="stroke:#000000;stroke-width:1;" x1="179.5596" x2="322.145" y1="142.5625" y2="142.5625"/><text fill="#000000" font-family="Verdana" font-size="13" lengthAdjust="spacing" textLength="124.5854" x="186.5596" y="137.4966">GET /products/{id}</text></g><g class="message" data-entity-1="part3" data-entity-2="part2" id="msg3"><polygon fill="#000000" points="190.5596,167.6953,180.5596,171.6953,190.5596,175.6953,186.5596,171.6953" style="stroke:#000000;stroke-width:1;"/><line style="stroke:#000000;stroke-width:1;stroke-dasharray:2,2;" x1="184.5596" x2="327.145" y1="171.6953" y2="171.6953"/><text fill="#000000" font-family="Verdana" font-size="13" lengthAdjust="spacing" textLength="87.0771" x="196.5596" y="166.6294">Price + Stock</text></g><path d="M15,186.6953 L79.4429,186.6953 L79.4429,193.8281 L69.4429,203.8281 L15,203.8281 L15,186.6953" fill="#FFFFFF" style="stroke:#000000;stroke-width:1;"/><rect fill="none" height="148.4688" style="stroke:#000000;stroke-width:1;" width="545.3369" x="15" y="186.6953"/><text fill="#000000" font-family="Verdana" font-size="13" font-weight="bold" lengthAdjust="spacing" textLength="19.4429" x="30" y="199.7622">alt</text><text fill="#000000" font-family="Verdana" font-size="11" font-weight="bold" lengthAdjust="spacing" textLength="60.3818" x="94.4429" y="198.9058">[In Stock]</text><g class="message" data-entity-1="part2" data-entity-2="part4" id="msg4"><polygon fill="#000000" points="433.5288,220.9609,443.5288,224.9609,433.5288,228.9609,437.5288,224.9609" style="stroke:#000000;stroke-width:1;"/><line style="stroke:#000000;stroke-width:1;" x1="179.5596" x2="439.5288" y1="224.9609" y2="224.9609"/><text fill="#000000" font-family="Verdana" font-size="13" lengthAdjust="spacing" textLength="73.2139" x="186.5596" y="219.895">Save Order</text></g><g class="message" data-entity-1="part2" data-entity-2="part5" id="msg5"><polygon fill="#000000" points="508.6494,250.0938,518.6494,254.0938,508.6494,258.0938,512.6494,254.0938" style="stroke:#000000;stroke-width:1;"/><line style="stroke:#000000;stroke-width:1;" x1="179.5596" x2="514.6494" y1="254.0938" y2="254.0938"/><text fill="#000000" font-family="Verdana" font-size="13" lengthAdjust="spacing" textLength="139.604" x="186.5596" y="249.0278">Publish OrderCreated</text></g><g class="message" data-entity-1="part2" data-entity-2="part1" id="msg6"><polygon fill="#000000" points="54.9551,279.2266,44.9551,283.2266,54.9551,287.2266,50.9551,283.2266" style="stroke:#000000;stroke-width:1;"/><line style="stroke:#000000;stroke-width:1;stroke-dasharray:2,2;" x1="48.9551" x2="178.5596" y1="283.2266" y2="283.2266"/><text fill="#000000" font-family="Verdana" font-size="13" lengthAdjust="spacing" textLength="80.6787" x="60.9551" y="278.1606">201 Created</text></g><line style="stroke:#000000;stroke-width:1;stroke-dasharray:2,2;" x1="15" x2="560.3369" y1="292.2266" y2="292.2266"/><text fill="#000000" font-family="Verdana" font-size="11" font-weight="bold" lengthAdjust="spacing" textLength="87.0708" x="20" y="302.437">[Out of Stock]</text><g class="message" data-entity-1="part2" data-entity-2="part1" id="msg7"><polygon fill="#000000" points="54.9551,323.1641,44.9551,327.1641,54.9551,331.1641,50.9551,327.1641" style="stroke:#000000;stroke-width:1;"/><line style="stroke:#000000;stroke-width:1;stroke-dasharray:2,2;" x1="48.9551" x2="178.5596" y1="327.1641" y2="327.1641"/><text fill="#000000" font-family="Verdana" font-size="13" lengthAdjust="spacing" textLength="111.6045" x="60.9551" y="322.0981">400 Bad Request</text></g><?plantuml-src PP3DJiCm48JlVegbLrGr84uvS4Y34EAGYi03REmjiUBQmLwN0-BTSVwW4RxDpkTPZw-ufHD1Rr1R4JfjU_HuWWPbz-vTj6hlZFFmsMec8L1o4c-1l4WSQwbxj0oRoYloK9C_QqaRm03ZP0qTl5DHyWgRPq8XOuE1bgYo6Eso41-H8i4p7ZiKOjWCs_if7N8uLFKhxDoWWfY6oLqMvV3uaEn-ac7tfTMtMCpjPOnFxu5hgDd9BhKq34zsLf3ERt9P9Bh6CytzLkRunY4jDaQ7TZBsdf19NP897NlaS9lTm0AGIUshoE2E_pV_NRdBCYXGmGkbZmaioAeV?></g></svg>